<svg width="78" height="78" viewBox="0 0 78 78" fill="none" xmlns="http://www.w3.org/2000/svg">
<rect x="0.5" y="0.5" width="77" height="77" rx="38.5" stroke="#605DF4"/>
<path d="M43.3125 28.7254C43.2625 29.0379 43.2375 29.3504 43.2375 29.6629C43.2375 32.4754 45.5125 34.7491 48.3125 34.7491C48.625 34.7491 48.925 34.7129 49.2375 34.6629V44.7491C49.2375 48.9879 46.7375 51.5004 42.4875 51.5004H33.2513C29 51.5004 26.5 48.9879 26.5 44.7491V35.5004C26.5 31.2504 29 28.7254 33.2513 28.7254H43.3125ZM43.5638 36.3254C43.225 36.2879 42.8888 36.4379 42.6875 36.7129L39.6638 40.6254L36.2 37.9004C35.9875 37.7379 35.7375 37.6741 35.4875 37.7004C35.2388 37.7379 35.0138 37.8741 34.8625 38.0741L31.1638 42.8879L31.0875 43.0004C30.875 43.3991 30.975 43.9116 31.35 44.1879C31.525 44.3004 31.7125 44.3754 31.925 44.3754C32.2138 44.3879 32.4875 44.2366 32.6625 44.0004L35.8 39.9616L39.3625 42.6379L39.475 42.7116C39.875 42.9241 40.375 42.8254 40.6625 42.4491L44.275 37.7879L44.225 37.8129C44.425 37.5379 44.4625 37.1879 44.325 36.8754C44.1888 36.5629 43.8875 36.3504 43.5638 36.3254ZM48.4876 26.5C50.1501 26.5 51.5001 27.85 51.5001 29.5125C51.5001 31.175 50.1501 32.525 48.4876 32.525C46.8251 32.525 45.4751 31.175 45.4751 29.5125C45.4751 27.85 46.8251 26.5 48.4876 26.5Z" fill="#605DF4"/>
</svg>
