<svg width="78" height="78" viewBox="0 0 78 78" fill="none" xmlns="http://www.w3.org/2000/svg">
<rect x="0.5" y="0.5" width="77" height="77" rx="38.5" stroke="#605DF4"/>
<path d="M33.9 40.8371C35.6625 40.8371 37.075 42.2634 37.075 44.0384V48.2996C37.075 50.0621 35.6625 51.4996 33.9 51.4996H29.675C27.925 51.4996 26.5 50.0621 26.5 48.2996V44.0384C26.5 42.2634 27.925 40.8371 29.675 40.8371H33.9ZM48.3251 40.8371C50.0751 40.8371 51.5001 42.2634 51.5001 44.0384V48.2996C51.5001 50.0621 50.0751 51.4996 48.3251 51.4996H44.1001C42.3376 51.4996 40.9251 50.0621 40.9251 48.2996V44.0384C40.9251 42.2634 42.3376 40.8371 44.1001 40.8371H48.3251ZM33.9 26.5C35.6625 26.5 37.075 27.9375 37.075 29.7013V33.9625C37.075 35.7375 35.6625 37.1625 33.9 37.1625H29.675C27.925 37.1625 26.5 35.7375 26.5 33.9625V29.7013C26.5 27.9375 27.925 26.5 29.675 26.5H33.9ZM48.3251 26.5C50.0751 26.5 51.5001 27.9375 51.5001 29.7013V33.9625C51.5001 35.7375 50.0751 37.1625 48.3251 37.1625H44.1001C42.3376 37.1625 40.9251 35.7375 40.9251 33.9625V29.7013C40.9251 27.9375 42.3376 26.5 44.1001 26.5H48.3251Z" fill="#605DF4"/>
</svg>
