<svg width="78" height="78" viewBox="0 0 78 78" fill="none" xmlns="http://www.w3.org/2000/svg">
<rect x="0.5" y="0.5" width="77" height="77" rx="38.5" stroke="#605DF4"/>
<path d="M38.9363 42.1745C43.2253 42.1745 46.8875 42.8545 46.8875 45.5754C46.8875 48.2953 43.2488 49 38.9363 49C34.6473 49 30.9851 48.32 30.9851 45.6002C30.9851 42.8793 34.6238 42.1745 38.9363 42.1745ZM45.7938 40.5361C47.4335 40.5057 49.1964 40.7309 49.8478 40.8907C51.2278 41.162 52.1355 41.7159 52.5116 42.5208C52.8295 43.1816 52.8295 43.9483 52.5116 44.608C51.9363 45.8564 50.0817 46.2572 49.3609 46.3608C49.212 46.3833 49.0923 46.2538 49.1079 46.1041C49.4762 42.6446 46.5471 41.0044 45.7894 40.6273C45.7569 40.6104 45.7502 40.5845 45.7535 40.5687C45.7558 40.5575 45.7692 40.5395 45.7938 40.5361ZM32.207 40.5365C32.2316 40.5399 32.2439 40.5579 32.2462 40.5681C32.2495 40.585 32.2428 40.6097 32.2115 40.6277C31.4526 41.0049 28.5235 42.6451 28.8918 46.1034C28.9074 46.2543 28.7888 46.3826 28.6399 46.3612C27.9191 46.2577 26.0645 45.8569 25.4892 44.6084C25.1703 43.9476 25.1703 43.1821 25.4892 42.5213C25.8653 41.7163 26.7719 41.1625 28.1519 40.89C28.8045 40.7313 30.5662 40.5062 32.207 40.5365ZM38.9363 29C41.8564 29 44.1979 31.3528 44.1979 34.2911C44.1979 37.2282 41.8564 39.5833 38.9363 39.5833C36.0162 39.5833 33.6747 37.2282 33.6747 34.2911C33.6747 31.3528 36.0162 29 38.9363 29ZM46.0793 29.8824C48.8998 29.8824 51.1148 32.5515 50.3604 35.5247C49.8511 37.5263 48.0077 38.8558 45.9539 38.8018C45.7479 38.7961 45.5454 38.777 45.3495 38.7432C45.2074 38.7184 45.1357 38.5575 45.2163 38.4381C45.9998 37.2786 46.4464 35.8838 46.4464 34.3865C46.4464 32.824 45.9584 31.3672 45.1111 30.1728C45.0842 30.1357 45.0641 30.0783 45.0909 30.0355C45.1133 30.0006 45.1547 29.9826 45.1939 29.9736C45.4793 29.915 45.7726 29.8824 46.0793 29.8824ZM31.9199 29.8823C32.2266 29.8823 32.5198 29.9149 32.8064 29.9734C32.8444 29.9824 32.8869 30.0016 32.9093 30.0354C32.9351 30.0781 32.916 30.1356 32.8892 30.1727C32.0419 31.3671 31.5539 32.8239 31.5539 34.3864C31.5539 35.8837 32.0005 37.2785 32.784 38.438C32.8646 38.5574 32.7929 38.7183 32.6508 38.7431C32.4538 38.778 32.2523 38.796 32.0464 38.8016C29.9926 38.8557 28.1491 37.5262 27.6399 35.5246C26.8844 32.5514 29.0994 29.8823 31.9199 29.8823Z" fill="#605DF4"/>
</svg>
