<svg width="78" height="78" viewBox="0 0 78 78" fill="none" xmlns="http://www.w3.org/2000/svg">
<rect x="0.5" y="0.5" width="77" height="77" rx="38.5" stroke="#605DF4"/>
<path d="M35.1951 30.1994C35.8078 30.0847 36.422 30.3906 36.6893 30.9435C36.7559 31.0438 36.8091 31.152 36.8478 31.2656C37.0176 33.8866 37.1987 36.4632 37.3685 39.0399C37.3647 39.3077 37.4068 39.5743 37.493 39.8284C37.6962 40.3284 38.2017 40.6457 38.7496 40.6169L47.0698 40.0838L47.1264 40.1061L47.2782 40.117C47.579 40.1555 47.8594 40.2928 48.0723 40.5088C48.3207 40.7608 48.4569 41.0994 48.451 41.4499C48.1229 46.2275 44.6202 50.2194 39.8535 51.2478C35.0867 52.2762 30.2002 50.0943 27.8597 45.8924C27.1715 44.6821 26.7366 43.3492 26.5806 41.9719C26.52 41.5638 26.4935 41.1515 26.5013 40.7391C26.5171 35.6588 30.1341 31.2738 35.1951 30.1994ZM40.1419 26.501C45.8554 26.6721 50.6305 30.8198 51.4959 36.3633C51.5014 36.3964 51.5014 36.4301 51.4959 36.4632L51.4943 36.6197C51.4755 36.8266 51.3906 37.0239 51.2495 37.1823C51.0732 37.3803 50.8237 37.5012 50.5563 37.5183L40.957 38.1514L40.7988 38.1545C40.5368 38.1417 40.2855 38.0398 40.0898 37.8637C39.8549 37.6522 39.7218 37.3535 39.7231 37.0408L39.0778 27.6116V27.4562C39.0896 27.191 39.2084 26.9413 39.408 26.7621C39.6076 26.5829 39.8717 26.489 40.1419 26.501Z" fill="#605DF4"/>
</svg>
