<svg width="50" height="50" fill="none" xmlns="http://www.w3.org/2000/svg"><path d="M20.125 16.134a5.232 5.232 0 0 0-2.575 1.395c-.677.681-1.056 1.335-1.319 2.278-.175.625-.183.831-.211 5.03-.033 4.971-.02 5.118.574 6.33.626 1.277 1.763 2.197 3.213 2.602.625.175.831.183 5.03.211 4.964.033 5.087.022 6.318-.572 1.283-.619 2.206-1.754 2.614-3.215.175-.625.183-.831.211-5.03.033-4.964.022-5.087-.572-6.318-.633-1.312-1.891-2.304-3.366-2.653-.848-.201-9.031-.248-9.917-.058m9.714 1.667c1.439.427 2.072 1.1 2.367 2.517.193.923.188 8.863-.006 9.521-.328 1.119-.919 1.846-1.753 2.158-1.034.387-1.729.434-5.954.401-3.749-.03-3.975-.04-4.412-.204-1.511-.566-1.987-1.09-2.288-2.521-.193-.917-.186-8.858.008-9.512.306-1.032.789-1.697 1.476-2.032.862-.42 1.18-.445 5.812-.454 3.726-.007 4.358.01 4.75.126" fill="#BFBFBF" fill-rule="evenodd"/></svg>