<svg width="50" height="50" fill="none" xmlns="http://www.w3.org/2000/svg"><path d="M31.083 17.241c-1.433.473-9.52 4.1-14.803 6.638-1.229.591-1.55 1.011-1.092 1.43.288.264.58.387 2.02.855 1.559.506 2.288.602 2.925.386.458-.154.397-.113 4.524-3.074 1.647-1.181 3.141-2.229 3.32-2.327.36-.197.606-.16.606.091 0 .238-.361.639-3.013 3.348-1.327 1.355-2.485 2.574-2.574 2.708-.259.394-.214.813.129 1.193.3.333 5.137 3.89 5.768 4.242.194.109.551.218.795.243.391.04.473.02.7-.171.516-.434.629-.871 1.27-4.886.781-4.896 1.342-8.974 1.342-9.754 0-.784-.308-1.167-.933-1.16-.152.002-.594.109-.984.238" fill="#BFBFBF" fill-rule="evenodd"/></svg>