<svg width="50" height="50" fill="none" xmlns="http://www.w3.org/2000/svg"><path d="M23.57 16.123a9.18 9.18 0 0 0-4.002 1.732c-2.606 1.963-3.974 5.327-3.447 8.479.158.944.513 2.046.879 2.729l.235.439-.613 2.226c-.337 1.224-.604 2.234-.594 2.245.01.01 1.066-.256 2.345-.592l2.326-.611.671.288c2.109.904 4.087 1.062 6.073.485a9.088 9.088 0 0 0 6.091-5.831c.929-2.781.436-5.722-1.359-8.104-1.659-2.202-4.093-3.471-6.842-3.567-.675-.024-1.295.005-1.763.082m2.173 1.63a7.589 7.589 0 0 1 4.004 1.634c.818.647 1.385 1.348 1.877 2.321.583 1.154.735 1.84.738 3.334.002 1.459-.137 2.104-.7 3.241a7.499 7.499 0 0 1-5.535 4.055c-.844.137-2.315.056-3.127-.171a10.494 10.494 0 0 1-1.35-.516l-.725-.342-1.358.381c-.747.209-1.37.368-1.385.353-.015-.015.145-.613.356-1.328l.384-1.302-.332-.56c-.727-1.225-1.059-2.622-.978-4.103.058-1.061.222-1.74.639-2.639 1.122-2.422 3.271-4.017 5.872-4.358.725-.094.698-.094 1.62 0m-4.399 3.623c-.614.554-.876 1.544-.647 2.44.455 1.775 2.569 4.183 4.399 5.009 1.88.85 3.155.894 4.047.141.532-.449.665-1.47.249-1.91-.244-.259-1.664-.911-2.008-.922-.24-.008-.321.054-.692.533-.384.495-.446.541-.719.532-.36-.011-1.237-.516-1.875-1.08-.491-.435-1.265-1.479-1.265-1.709 0-.08.169-.344.375-.586.207-.241.375-.491.375-.554 0-.169-.64-1.779-.794-1.999-.112-.159-.208-.188-.627-.188-.449 0-.525.028-.818.293" fill="#BFBFBF" fill-rule="evenodd"/></svg>