<svg xmlns="http://www.w3.org/2000/svg" xmlns:xlink="http://www.w3.org/1999/xlink" width="500" zoomAndPan="magnify" viewBox="0 0 375 374.999991" height="500" preserveAspectRatio="xMidYMid meet" version="1.0"><path fill="#000000" d="M 10.4375 314.5625 C 7.558594 313.46875 6.125 312.175781 4.324219 309.054688 C 3.148438 307.007812 2.941406 306.128906 2.933594 303.144531 C 2.925781 297.753906 5.09375 294.289062 9.910156 291.992188 C 14.867188 289.628906 18.933594 290.191406 23.617188 293.890625 L 26.085938 295.839844 L 82.070312 295.839844 C 118.710938 295.839844 138.359375 295.671875 138.949219 295.355469 C 139.449219 295.09375 141.242188 292.445312 142.945312 289.46875 C 149.582031 277.851562 151.3125 274.867188 152.484375 273.015625 C 153.15625 271.957031 155.535156 267.847656 157.777344 263.886719 C 160.015625 259.921875 164.625 251.917969 168.011719 246.105469 C 171.40625 240.289062 175.480469 233.257812 177.074219 230.488281 C 185.863281 215.167969 186.53125 214.148438 187.785156 214.148438 C 188.636719 214.148438 190.207031 216.40625 193.492188 222.316406 C 195.035156 225.089844 199.3125 232.554688 203.003906 238.894531 C 206.6875 245.238281 211.769531 253.996094 214.28125 258.359375 C 216.796875 262.722656 220.015625 268.273438 221.433594 270.695312 C 223.746094 274.644531 228.414062 282.746094 233.011719 290.796875 C 233.921875 292.382812 235.117188 294.164062 235.671875 294.761719 L 236.679688 295.839844 L 349.128906 295.839844 L 351.628906 293.914062 C 357.425781 289.441406 363.726562 289.507812 368.605469 294.09375 C 371.265625 296.597656 372.164062 298.875 372.148438 303.082031 C 372.128906 307.550781 371.15625 309.75 367.949219 312.570312 C 365.738281 314.515625 362.828125 315.542969 359.53125 315.542969 C 357.339844 315.542969 353.546875 313.90625 351.3125 311.992188 L 349.285156 310.257812 L 289.835938 310.257812 C 257.132812 310.257812 229.707031 310.125 228.878906 309.957031 C 227.621094 309.707031 226.984375 309.011719 225.027344 305.75 C 222.742188 301.929688 217.007812 292.054688 213.363281 285.660156 C 208.101562 276.414062 201.0625 264.25 199.367188 261.480469 C 198.5625 260.160156 196.355469 256.378906 194.460938 253.074219 C 190.242188 245.695312 188.644531 243.160156 187.96875 242.742188 C 187.109375 242.207031 186.171875 243.347656 183.464844 248.210938 C 182.050781 250.75 178.992188 256.074219 176.675781 260.039062 C 170.695312 270.246094 167.820312 275.195312 164.660156 280.703125 C 163.144531 283.347656 159.109375 290.382812 155.691406 296.339844 C 152.273438 302.300781 148.964844 307.816406 148.339844 308.59375 L 147.207031 310.019531 L 86.460938 310.257812 L 25.722656 310.5 L 23.746094 312.058594 C 19.351562 315.542969 15.113281 316.335938 10.4375 314.5625 M 30.085938 276.648438 C 25.980469 275.652344 22.675781 272.40625 21.4375 268.15625 C 19.53125 261.597656 23.136719 254.890625 29.671875 252.832031 C 34.117188 251.433594 37.8125 252.28125 42.027344 255.667969 L 43.882812 257.15625 L 77.59375 257.296875 C 96.136719 257.375 112.46875 257.300781 113.882812 257.136719 C 116.792969 256.796875 116.265625 257.460938 123.117188 245.625 C 128.617188 236.128906 129.175781 234.941406 128.464844 234.230469 C 127.96875 233.734375 121.273438 233.609375 95.703125 233.609375 L 63.558594 233.609375 L 60.761719 235.582031 C 57.128906 238.132812 54.894531 238.84375 51.519531 238.511719 C 46.605469 238.03125 42.835938 235.246094 40.851562 230.617188 C 38.496094 225.117188 41.207031 217.894531 46.671875 215.105469 C 50.808594 212.996094 56.933594 213.621094 60.246094 216.492188 C 61.105469 217.238281 62.277344 218.097656 62.855469 218.402344 C 63.617188 218.804688 73.957031 218.953125 100.679688 218.953125 L 137.449219 218.953125 L 138.667969 217.871094 C 139.339844 217.277344 141.472656 213.980469 143.414062 210.542969 C 145.355469 207.109375 147.496094 203.433594 148.164062 202.375 C 150.726562 198.324219 151.539062 196.339844 150.933594 195.609375 C 150.445312 195.03125 145.183594 194.925781 116.328125 194.925781 L 82.296875 194.925781 L 79.257812 197.003906 C 77.589844 198.140625 75.488281 199.332031 74.589844 199.644531 C 70.523438 201.058594 64.765625 199.578125 61.867188 196.378906 C 59.203125 193.417969 58.683594 192.039062 58.683594 187.851562 C 58.683594 182.214844 60.824219 178.726562 65.722656 176.410156 C 70.242188 174.277344 75.40625 175.164062 79.742188 178.824219 C 80.617188 179.5625 82.242188 180.351562 83.347656 180.570312 C 85.726562 181.042969 147.28125 181.035156 149.601562 180.558594 C 150.476562 180.378906 151.253906 179.914062 151.328125 179.53125 C 151.402344 179.144531 150.460938 177.097656 149.234375 174.984375 C 148.015625 172.867188 146.355469 169.945312 145.554688 168.496094 C 142.128906 162.273438 139.265625 157.84375 138.242188 157.175781 C 137.292969 156.542969 132.328125 156.472656 100.125 156.589844 L 63.105469 156.722656 L 61.253906 158.210938 C 57.839844 160.957031 56.335938 161.511719 52.425781 161.507812 C 47.488281 161.503906 44.449219 159.847656 41.933594 155.785156 C 40.335938 153.214844 40.179688 152.652344 40.199219 149.550781 C 40.230469 144.183594 42.734375 140.300781 47.820312 137.726562 C 48.679688 137.289062 50.527344 137.03125 52.625 137.046875 C 56.316406 137.082031 58 137.726562 61.253906 140.335938 L 63.109375 141.824219 L 88.167969 141.839844 C 120.605469 141.859375 128.550781 141.613281 128.746094 140.574219 C 128.828125 140.15625 127.226562 136.914062 125.195312 133.367188 C 123.15625 129.824219 120.746094 125.601562 119.828125 123.976562 C 118.910156 122.355469 117.664062 120.40625 117.0625 119.652344 L 115.96875 118.277344 L 44.433594 118.277344 L 42.359375 119.71875 C 38.800781 122.195312 36.90625 122.996094 34.097656 123.21875 C 29.964844 123.546875 27.023438 122.371094 24.183594 119.265625 C 22.148438 117.039062 21.769531 116.289062 21.230469 113.410156 C 20.683594 110.503906 20.707031 109.773438 21.4375 107.265625 C 22.636719 103.171875 25.691406 100.207031 30.070312 98.886719 C 33.28125 97.925781 33.339844 97.925781 36.28125 98.835938 C 37.914062 99.339844 40.417969 100.625 41.839844 101.683594 L 44.4375 103.621094 L 83.894531 103.621094 C 127.742188 103.621094 124.40625 103.367188 126.636719 106.910156 C 127.246094 107.875 130.300781 113.101562 133.417969 118.519531 C 136.542969 123.933594 141.152344 131.941406 143.664062 136.300781 C 146.175781 140.65625 150.222656 147.6875 152.648438 151.917969 C 155.074219 156.144531 158.578125 162.199219 160.429688 165.371094 C 170.222656 182.140625 172.589844 186.464844 172.589844 187.640625 C 172.585938 188.785156 168.351562 196.550781 160.105469 210.542969 C 158.703125 212.921875 156.757812 216.273438 155.777344 217.992188 C 151.09375 226.191406 140.589844 244.421875 136.941406 250.667969 C 134.703125 254.503906 131.316406 260.339844 129.417969 263.644531 C 127.519531 266.949219 125.632812 270.085938 125.230469 270.613281 C 124.5 271.554688 123.773438 271.578125 84.449219 271.8125 L 44.40625 272.054688 L 41.570312 274.042969 C 37.550781 276.863281 34.136719 277.636719 30.085938 276.648438 M 338.644531 276.675781 C 336.699219 276.167969 334.390625 274.933594 333.597656 273.976562 C 331.765625 271.769531 332.625 271.8125 290.820312 271.8125 L 251.363281 271.8125 L 250.265625 270.632812 C 249.664062 269.984375 247.363281 266.359375 245.15625 262.582031 C 234.199219 243.832031 227.859375 232.851562 227.859375 232.617188 C 227.859375 232.511719 227.101562 231.246094 226.179688 229.800781 C 225.253906 228.351562 224.496094 227.070312 224.496094 226.945312 C 224.496094 226.820312 223.199219 224.523438 221.613281 221.835938 C 220.027344 219.152344 218.726562 216.859375 218.726562 216.738281 C 218.726562 216.621094 217.902344 215.179688 216.890625 213.539062 C 215.046875 210.523438 214.425781 209.472656 208.351562 199.113281 C 206.523438 195.996094 204.546875 192.644531 203.957031 191.664062 C 202.683594 189.546875 202.558594 186.828125 203.644531 184.691406 C 204.074219 183.84375 206 180.453125 207.925781 177.144531 C 209.847656 173.839844 214.167969 166.382812 217.527344 160.566406 C 220.882812 154.753906 225.089844 147.503906 226.875 144.46875 C 228.65625 141.429688 233.425781 133.210938 237.476562 126.207031 C 241.527344 119.207031 246 111.480469 247.410156 109.042969 C 248.828125 106.601562 250.402344 104.386719 250.90625 104.117188 C 251.515625 103.789062 265.308594 103.621094 291.507812 103.621094 L 331.1875 103.621094 L 332.996094 102.007812 C 335.421875 99.832031 337.519531 98.820312 340.273438 98.496094 C 345.835938 97.835938 352.058594 101.660156 353.542969 106.660156 C 355.546875 113.410156 353.003906 119.3125 346.859375 122.171875 C 342.378906 124.261719 337.230469 123.429688 333.304688 119.980469 C 332.417969 119.203125 330.988281 118.4375 330.121094 118.285156 C 329.257812 118.125 313.054688 118.0625 294.113281 118.140625 C 261.410156 118.273438 259.632812 118.320312 258.703125 119.167969 C 258.160156 119.652344 255.574219 123.761719 252.945312 128.296875 C 245.414062 141.296875 245.8125 140.503906 246.480469 141.171875 C 246.941406 141.632812 254.414062 141.773438 279.472656 141.796875 L 311.871094 141.824219 L 313.960938 140.257812 C 317.820312 137.367188 318.691406 137.039062 322.542969 137.039062 C 326.714844 137.042969 328.894531 137.964844 331.769531 140.945312 C 334.109375 143.367188 335.039062 145.722656 335.039062 149.234375 C 335.039062 153.757812 332.671875 157.972656 328.894531 160.195312 C 324.773438 162.617188 316.960938 161.761719 314.335938 158.605469 C 312.582031 156.492188 312.425781 156.480469 274.808594 156.480469 C 250.671875 156.480469 238.578125 156.652344 237.582031 156.996094 C 236.152344 157.496094 234.535156 159.835938 229.65625 168.496094 C 228.988281 169.6875 227.441406 172.382812 226.226562 174.492188 C 225.011719 176.597656 224.015625 178.574219 224.015625 178.875 C 224.015625 180.730469 224.378906 180.75 259.292969 180.75 L 292.984375 180.75 L 295.65625 178.71875 C 301.855469 174.007812 308.007812 174.097656 313.101562 178.972656 C 316.894531 182.605469 317.914062 188.386719 315.578125 193 C 314.074219 195.960938 312.390625 197.589844 309.324219 199.054688 C 305.023438 201.109375 300.605469 200.433594 295.894531 197.007812 L 293.042969 194.925781 L 259.460938 194.925781 C 237.226562 194.925781 225.558594 195.09375 224.941406 195.425781 C 224.433594 195.695312 224.015625 196.183594 224.015625 196.507812 C 224.015625 197.421875 234.988281 216.167969 236.3125 217.511719 L 237.496094 218.714844 L 312.207031 218.714844 L 314.894531 216.671875 C 319.78125 212.957031 325.546875 212.816406 330.304688 216.296875 C 336.75 221.015625 336.621094 231.71875 330.054688 236.128906 C 324.484375 239.867188 319.214844 239.421875 313.257812 234.6875 L 311.902344 233.609375 L 286.101562 233.484375 C 271.910156 233.414062 257.273438 233.523438 253.574219 233.726562 C 247.355469 234.0625 246.835938 234.164062 246.710938 235.050781 C 246.542969 236.238281 257.183594 254.8125 258.902344 256.324219 L 260.144531 257.421875 L 295.632812 257.285156 L 331.121094 257.15625 L 332.480469 256.082031 C 336.332031 253.023438 338.011719 252.351562 341.765625 252.363281 C 344.515625 252.371094 345.828125 252.617188 347.292969 253.402344 C 354.742188 257.382812 356.511719 266.699219 350.984375 272.847656 C 349.765625 274.203125 348.097656 275.589844 347.289062 275.933594 C 345.367188 276.734375 340.484375 277.152344 338.644531 276.675781 M 186.621094 160.535156 C 186.089844 160.160156 185.132812 158.933594 184.492188 157.808594 C 183.859375 156.679688 181.707031 152.949219 179.710938 149.515625 C 177.710938 146.078125 174.027344 139.695312 171.515625 135.339844 C 167.300781 128.007812 155.960938 108.433594 150.355469 98.816406 C 149.046875 96.566406 147.355469 93.601562 146.597656 92.21875 C 145.835938 90.835938 144.34375 88.273438 143.28125 86.523438 C 142.21875 84.769531 141.347656 83.167969 141.347656 82.957031 C 141.347656 82.75 140.71875 81.90625 139.953125 81.089844 L 138.5625 79.59375 L 83.03125 79.59375 C 47.347656 79.59375 27.050781 79.765625 26.246094 80.074219 C 25.554688 80.335938 24.1875 81.191406 23.210938 81.976562 C 16.722656 87.175781 7.71875 85.171875 3.898438 77.675781 C 2.550781 75.042969 2.558594 69.714844 3.910156 67.0625 C 6.082031 62.800781 10.796875 59.886719 15.488281 59.898438 C 17.835938 59.902344 21.601562 61.476562 23.890625 63.410156 C 24.710938 64.101562 25.972656 64.894531 26.683594 65.164062 C 27.546875 65.488281 47.820312 65.648438 87.289062 65.628906 C 127.535156 65.609375 146.894531 65.765625 147.53125 66.101562 C 148.042969 66.378906 149.5 68.394531 150.769531 70.574219 C 152.039062 72.761719 154.082031 76.277344 155.304688 78.394531 C 156.535156 80.507812 160.519531 87.425781 164.164062 93.769531 C 167.8125 100.113281 173.441406 109.84375 176.679688 115.394531 C 179.917969 120.945312 183.476562 127.066406 184.585938 129 C 187.550781 134.160156 187.789062 134.128906 191.15625 128.128906 C 192.121094 126.414062 194.25 122.734375 195.890625 119.960938 C 200.710938 111.804688 209.492188 96.679688 213.460938 89.6875 C 223.582031 71.859375 226.710938 66.753906 227.90625 66.109375 C 228.488281 65.800781 249.691406 65.640625 288.144531 65.644531 C 326.765625 65.648438 347.933594 65.484375 348.757812 65.167969 C 349.457031 64.902344 350.925781 63.976562 352.027344 63.113281 C 353.125 62.246094 354.839844 61.164062 355.839844 60.714844 C 361.058594 58.355469 368.289062 61.246094 371.210938 66.859375 C 372.613281 69.554688 372.613281 75.214844 371.210938 77.914062 C 369.855469 80.515625 367.46875 82.699219 364.679688 83.890625 C 360.375 85.726562 356.128906 85 351.738281 81.683594 L 348.976562 79.59375 L 293.25 79.59375 C 255.222656 79.59375 237.164062 79.753906 236.414062 80.097656 C 235.722656 80.417969 233.78125 83.265625 231.257812 87.667969 C 229.027344 91.554688 224.679688 99.054688 221.597656 104.34375 C 218.511719 109.628906 212.148438 120.65625 207.453125 128.851562 C 202.757812 137.042969 197.894531 145.476562 196.640625 147.59375 C 195.382812 149.707031 193.128906 153.527344 191.625 156.078125 C 190.117188 158.628906 188.597656 160.832031 188.242188 160.964844 C 187.886719 161.105469 187.160156 160.90625 186.621094 160.535156 Z M 186.621094 160.535156 " fill-opacity="1" fill-rule="nonzero"/></svg>